<?xml version="1.0" encoding="UTF-8"?>
<svg version="1.1" xmlns="http://www.w3.org/2000/svg" width="500" height="500">
<path d="M0 0 C0.73476563 0.24057129 1.46953125 0.48114258 2.2265625 0.72900391 C7.63562312 2.63711588 11.62661844 4.93139068 14.8125 9.875 C16.62116798 14.72984564 16.62954776 18.31375622 14.875 23.1875 C11.8400384 27.84110779 8.87580452 30.44860034 3.5625 32.1875 C-1.96652041 32.60058773 -7.15365436 30.16273259 -12.27734375 28.34375 C-22.38057714 24.86645666 -36.6028229 22.5967743 -47 26.0625 C-46.85360098 33.08965298 -43.8806333 36.24965327 -39 41.0625 C-38.175 41.8978125 -37.35 42.733125 -36.5 43.59375 C-29.93119217 49.94359757 -22.96389586 55.00461567 -15.14331055 59.73925781 C-9.53952753 63.24964901 -6.45991591 66.45847532 -4.41040039 72.921875 C-3.90579045 75.55389162 -3.88808758 78.02296528 -3.90234375 80.703125 C-3.90556641 81.77304688 -3.90878906 82.84296875 -3.91210938 83.9453125 C-3.92048828 85.05648437 -3.92886719 86.16765625 -3.9375 87.3125 C-3.94201172 88.43914062 -3.94652344 89.56578125 -3.95117188 90.7265625 C-3.96294603 93.50526217 -3.9793916 96.28385409 -4 99.0625 C-3.11666992 99.41852295 -2.23333984 99.7745459 -1.32324219 100.14135742 C17.6634839 107.80915145 36.41207098 115.78122496 54.90185547 124.59130859 C57.80355912 125.96921767 60.7138719 127.32635311 63.62890625 128.67578125 C76.38749246 134.60970758 88.74134163 141.15907751 101 148.0625 C102.05977051 148.65756348 103.11954102 149.25262695 104.21142578 149.86572266 C151.43118518 176.46889252 151.43118518 176.46889252 155 188.0625 C155.81835505 194.01166535 155.5380878 199.04069796 152 204.0625 C139.64225761 217.75811763 118.27460342 218.8895491 101 220.0625 C92.9197441 220.39709976 84.83159481 220.33699916 76.74609375 220.32128906 C74.37020766 220.32400584 71.99432241 220.32757059 69.61843872 220.33190918 C63.22177655 220.3409538 56.82517957 220.33752193 50.42851639 220.33115101 C46.42059055 220.32811218 42.41268041 220.32827516 38.40475464 220.33013153 C37.40106249 220.33059123 37.40106249 220.33059123 36.37709373 220.33106022 C35.01700377 220.33169978 33.65691381 220.33234821 32.29682386 220.3330054 C19.59744601 220.33868377 6.89809723 220.3321902 -5.80127585 220.32140467 C-16.65496666 220.31247144 -27.50861465 220.31402418 -38.36230469 220.32324219 C-51.02188157 220.33398917 -63.6814331 220.33813468 -76.34101391 220.33201766 C-77.69559415 220.33138068 -79.05017439 220.33075194 -80.40475464 220.33013153 C-81.07091925 220.32982298 -81.73708386 220.32951443 -82.42343527 220.32919653 C-87.07698406 220.32748281 -91.73051609 220.33045582 -96.38406372 220.33509064 C-102.66826402 220.34091357 -108.95238433 220.33677764 -115.23657608 220.32530212 C-117.52811679 220.32268179 -119.81966436 220.32337501 -122.11120224 220.32782745 C-174.97928629 220.42099494 -174.97928629 220.42099494 -190.9375 206.5 C-191.618125 205.695625 -192.29875 204.89125 -193 204.0625 C-193.5775 203.381875 -194.155 202.70125 -194.75 202 C-197.4822358 197.76503451 -197.53425624 192.99482998 -197 188.0625 C-194.12789866 180.73864158 -189.42316326 176.27861827 -183.0625 172 C-182.36793701 171.52812256 -181.67337402 171.05624512 -180.95776367 170.57006836 C-172.80837871 165.13028454 -164.27785448 160.3690678 -155.72753906 155.59619141 C-152.99088056 154.05737215 -150.27082048 152.49270125 -147.5546875 150.91796875 C-137.80481671 145.26954243 -128.00583601 139.89146969 -117.86669922 134.97607422 C-115.43840883 133.78765379 -113.03267433 132.5556985 -110.62475586 131.32666016 C-89.11760785 120.40924084 -67.07975342 110.83763767 -44.74609375 101.765625 C-44.10674393 101.50582855 -43.4673941 101.2460321 -42.80867004 100.97836304 C-40.2220817 99.93369835 -37.64746379 98.94498793 -35 98.0625 C-33.54717787 93.1519612 -32.96936803 89.11361706 -34 84.0625 C-37.61315979 79.53060366 -43.01658649 76.65339011 -47.82861328 73.54785156 C-53.42064184 69.72258714 -58.18621254 64.80160247 -63 60.0625 C-63.69738281 59.38960938 -64.39476562 58.71671875 -65.11328125 58.0234375 C-73.26380077 49.52954797 -78.34284767 38.14853377 -78.1484375 26.38671875 C-77.57431529 17.39717359 -73.85511211 9.40775392 -67.25 3.25 C-49.11037045 -11.34277461 -20.54438305 -6.77845196 0 0 Z M-31.234375 127.5703125 C-31.90147995 127.8469725 -32.5685849 128.12363251 -33.25590515 128.40867615 C-35.42898969 129.31636033 -37.58926348 130.25084289 -39.75 131.1875 C-41.27310533 131.83292666 -42.79663034 132.47736376 -44.32055664 133.12084961 C-57.22157656 138.60094467 -69.96814914 144.41181948 -82.61767578 150.44921875 C-86.0615648 152.09186482 -89.51278883 153.71834514 -92.96484375 155.34375 C-113.5702945 165.09576 -133.93050219 175.51429959 -153 188.0625 C-153 188.3925 -153 188.7225 -153 189.0625 C-147.20276534 190.06091117 -141.58956342 190.20331473 -135.71435547 190.18948364 C-134.69242537 190.19104363 -133.67049526 190.19260362 -132.61759758 190.19421089 C-129.20077946 190.19819254 -125.78400594 190.19504221 -122.3671875 190.19189453 C-119.91448948 190.19324983 -117.46179167 190.19503048 -115.00909424 190.19720459 C-109.04330079 190.20129034 -103.07752477 190.20069331 -97.11173201 190.19779195 C-92.26212937 190.1955313 -87.41253026 190.19522827 -82.56292725 190.19631577 C-81.87205643 190.196469 -81.18118561 190.19662223 -80.46937931 190.19678011 C-79.06578016 190.19709984 -77.66218102 190.19742405 -76.25858188 190.1977527 C-63.1046733 190.20060255 -49.9507717 190.19732822 -36.79686427 190.19195233 C-25.5162654 190.18748474 -14.23567681 190.18826081 -2.95507812 190.19287109 C10.152561 190.19822558 23.26019402 190.20032791 36.36783409 190.19725883 C37.76619848 190.19694029 39.16456286 190.19662592 40.56292725 190.19631577 C41.25090491 190.19616149 41.93888258 190.19600721 42.64770806 190.19584826 C47.49009544 190.19498574 52.33247894 190.19644031 57.17486572 190.19879532 C63.69522924 190.20189675 70.21557635 190.1996808 76.73593903 190.19390106 C79.1292645 190.19257857 81.52259162 190.19295892 83.91591644 190.19516373 C87.18208489 190.19789525 90.448191 190.19446949 93.71435547 190.18948364 C94.66192781 190.19171436 95.60950016 190.19394509 96.58578682 190.19624341 C101.49896242 190.18169171 106.1560582 189.8967332 111 189.0625 C108.4188011 187.07042518 105.82547821 185.29732766 103 183.671875 C102.21101318 183.2178833 101.42202637 182.7638916 100.60913086 182.29614258 C68.32583874 163.93873955 35.41922297 147.61458564 1.25 133.0625 C0.02981171 132.5380278 0.02981171 132.5380278 -1.21502686 132.00296021 C-3.52936232 131.01143431 -5.84933212 130.03462019 -8.171875 129.0625 C-8.84745453 128.77169052 -9.52303406 128.48088104 -10.21908569 128.18125916 C-17.71606915 125.09057406 -23.50323965 124.30263032 -31.234375 127.5703125 Z " fill="#FEFEFE" transform="translate(271,42.9375)"/>
<path d="M0 0 C2.625 0.9375 2.625 0.9375 5 2 C4.46928332 7.70124379 3.33916689 12.46294467 1.234375 17.76953125 C0.66993419 19.24112204 0.1057339 20.7128051 -0.45825195 22.18457031 C-0.75172516 22.94112915 -1.04519836 23.69768799 -1.3475647 24.47717285 C-12.38836147 50.89322475 -12.38836147 50.89322475 -14 79 C-12.18166163 82.85956188 -12.18166163 82.85956188 -8.6875 85 C-3.09455448 85 0.92245149 81.49680675 5 78 C6.46372777 76.31048444 7.88176574 74.58023777 9.25 72.8125 C12.99337748 68.00662252 12.99337748 68.00662252 14 67 C15.66617115 66.95936168 17.33388095 66.957279 19 67 C19.66 68.32 20.32 69.64 21 71 C14.94432719 80.90928279 7.37341718 90.20886094 -4 94 C-9.1091877 94.61556478 -12.84699899 94.66190799 -17.375 92.0625 C-20.77602591 88.70964726 -22.31985569 84.38560745 -24 80 C-24.33 79.34 -24.66 78.68 -25 78 C-26.485 78.495 -26.485 78.495 -28 79 C-30.08423163 78.86762313 -32.16750843 78.71989762 -34.25 78.5625 C-39.08954603 78.45536538 -39.08954603 78.45536538 -43.234375 80.63671875 C-44.94923274 82.68923654 -46.47943433 84.80128731 -48 87 C-52.9881105 91.6231268 -58.02490879 93.56782875 -64.91015625 93.3828125 C-69.97660851 92.45475209 -73.88720379 89.47176273 -76.9375 85.4375 C-78.679918 81.44018813 -79.11984099 78.10791494 -79.0625 73.75 C-79.05347656 72.85796875 -79.04445313 71.9659375 -79.03515625 71.046875 C-79.02355469 70.37140625 -79.01195313 69.6959375 -79 69 C-79.83772949 69.39380859 -80.67545898 69.78761719 -81.53857422 70.19335938 C-84.64197645 71.65003199 -87.74693686 73.10327306 -90.85302734 74.55419922 C-92.1980719 75.18335916 -93.54247718 75.81388766 -94.88623047 76.44580078 C-96.81572451 77.35287658 -98.74744993 78.25503611 -100.6796875 79.15625 C-102.42354736 79.97319336 -102.42354736 79.97319336 -104.20263672 80.80664062 C-107 82 -107 82 -109 82 C-108.65775391 83.52367187 -108.65775391 83.52367187 -108.30859375 85.078125 C-106.06278415 95.59533729 -104.07235789 106.39956856 -109.6953125 116.25 C-112.86720454 120.50451387 -117.0561984 124.02247936 -122 126 C-127.56525645 126.66659061 -132.44173472 126.77913264 -137.5 124.25 C-138.325 123.5075 -139.15 122.765 -140 122 C-140.763125 121.443125 -141.52625 120.88625 -142.3125 120.3125 C-144.94958891 116.6987115 -145.25696457 113.41573327 -145 109 C-142.79959416 97.88302424 -135.59319637 89.30780549 -126.5625 82.8125 C-122.35362998 80 -122.35362998 80 -120 80 C-122.39095341 73.56536041 -124.86766262 67.22007865 -127.70458984 60.97070312 C-132.51963802 50.3341723 -137.64025908 38.65911011 -133.875 26.9375 C-131.47132354 21.25811562 -128.01906374 16.55660028 -122.25 14.0625 C-114.35885682 11.64254943 -106.40788976 12.4737876 -99 16 C-93.85054056 19.40058642 -91.01887971 23.24503256 -89 29 C-88.75 32 -88.75 32 -89 34 C-91.3125 35.125 -91.3125 35.125 -94 36 C-97 34 -97 34 -98.375 30.625 C-100.1687983 26.62344995 -101.20683059 25.14396532 -105 23 C-110.43813753 21.49229457 -115.17207567 21.69580668 -120.3359375 24 C-123.06549593 25.64029803 -123.95359285 26.99157943 -125 30 C-127.37575613 44.37482821 -117.61993384 60.31557186 -112 73 C-108.49303577 73 -105.43337702 70.93239141 -102.32421875 69.421875 C-101.56204544 69.05402893 -100.79987213 68.68618286 -100.01460266 68.30718994 C-98.39880734 67.52567027 -96.7840215 66.74206062 -95.17016602 65.95654297 C-92.71142749 64.76162845 -90.24759411 63.57773509 -87.78320312 62.39453125 C-86.21321675 61.63348242 -84.64354499 60.87178414 -83.07421875 60.109375 C-82.34071701 59.75816589 -81.60721527 59.40695679 -80.85148621 59.04510498 C-75.68545809 56.51343142 -71.56838002 53.69219949 -67.625 49.4375 C-63.66132052 45.75694048 -59.90609698 44.24259416 -54.5625 43.5625 C-48.67199947 44.2858948 -44.03438362 46.46971427 -40.125 51 C-37.11151465 55.25433225 -35.72604859 57.85932319 -35.8125 63.125 C-35.81894531 63.99382812 -35.82539062 64.86265625 -35.83203125 65.7578125 C-36 68 -36 68 -37 70 C-35.58222818 69.91214662 -34.16570961 69.80395353 -32.75 69.6875 C-31.96109375 69.62949219 -31.1721875 69.57148438 -30.359375 69.51171875 C-27.30675307 68.84964346 -26.1229596 68.34195964 -24 66 C-22.87911567 62.92848045 -22.2551194 59.7534078 -21.5625 56.5625 C-18.90853037 45.39190962 -15.23882768 34.71346889 -11.3125 23.9375 C-11.0246463 23.14256134 -10.7367926 22.34762268 -10.44021606 21.52859497 C-9.60771011 19.23439891 -8.76856628 16.94278178 -7.92578125 14.65234375 C-7.67592468 13.96876801 -7.42606812 13.28519226 -7.16864014 12.5809021 C-3.05177611 1.52588805 -3.05177611 1.52588805 0 0 Z M-65 58 C-68.48054444 63.00811672 -70.88297045 67.79743365 -71 74 C-70.04561482 78.42487674 -68.71189049 81.3191902 -65 84 C-61.07164006 84.68319303 -59.3672635 84.20566756 -55.875 82.25 C-53.36193516 80.28325361 -51.08893779 78.41031284 -49 76 C-49 75.34 -49 74.68 -49 74 C-50.67721041 72.43041807 -52.46794114 71.0519475 -54.2734375 69.6328125 C-57.65778051 66.43223472 -58.26659608 63.28978297 -58.625 58.75 C-58.69976562 57.85796875 -58.77453125 56.9659375 -58.8515625 56.046875 C-58.90054688 55.37140625 -58.94953125 54.6959375 -59 54 C-61.47135595 54 -63.3596274 56.47147098 -65 58 Z M-50 55 C-50.66 55.66 -51.32 56.32 -52 57 C-52 59.78791373 -51.57121674 61.40281886 -49.625 63.4375 C-47.12645157 65.92513339 -47.12645157 65.92513339 -44 67 C-44.38381792 60.35230801 -44.38381792 60.35230801 -48 55 C-48.66 55 -49.32 55 -50 55 Z M-130.18359375 97.17578125 C-134.31950991 101.87920358 -136.38406072 104.49389348 -136.27734375 111.02734375 C-136.11618902 113.20724791 -136.11618902 113.20724791 -134.375 115.4375 C-131.36476713 117.41791636 -129.62279852 118 -126 118 C-120.75158216 115.91873086 -117.92298674 113.6180254 -115.65234375 108.4140625 C-113.84627065 101.73051054 -114.18271233 94.33889726 -117 88 C-121.25961135 88 -127.33665397 94.3390273 -130.18359375 97.17578125 Z " fill="#FDFDFD" transform="translate(153,292)"/>
<path d="M0 0 C1.2065625 0.0309375 1.2065625 0.0309375 2.4375 0.0625 C3.4275 3.0325 3.4275 3.0325 4.4375 6.0625 C5.22125 5.5675 6.005 5.0725 6.8125 4.5625 C11.88506453 2.46350778 17.41758844 1.8695812 22.6328125 3.9296875 C25.62765111 5.80956455 26.27225148 7.74154171 27.4375 11.0625 C29.12360616 23.08870296 24.52412473 34.98623592 20 45.9375 C19.72406006 46.63383545 19.44812012 47.3301709 19.16381836 48.04760742 C17.80004353 51.17709936 17.06631451 52.80340951 13.83984375 54.1328125 C11.4375 54.0625 11.4375 54.0625 9.4375 52.0625 C8.86262758 47.03605143 10.33045961 43.2071266 12.3125 38.6875 C15.98989243 29.86025895 17.79213354 22.67700942 17.4375 13.0625 C16.4475 12.7325 15.4575 12.4025 14.4375 12.0625 C3.84815706 17.47483084 0.17000571 28.47778232 -3.5625 39.0625 C-4.34432019 41.73625736 -5.0901279 44.3976102 -5.7265625 47.109375 C-6.83255008 49.69345813 -8.1391399 50.68744736 -10.5625 52.0625 C-13.3125 51.25 -13.3125 51.25 -15.5625 50.0625 C-15.5625 49.0725 -15.5625 48.0825 -15.5625 47.0625 C-16.243125 47.536875 -16.92375 48.01125 -17.625 48.5 C-22.52512413 51.106449 -26.04030805 51.5116714 -31.375 49.9375 C-34.5625 48.0625 -34.5625 48.0625 -36 45.375 C-36.185625 44.611875 -36.37125 43.84875 -36.5625 43.0625 C-37.08199219 43.47242188 -37.60148437 43.88234375 -38.13671875 44.3046875 C-44.27820603 49.04986621 -48.52193636 51.7678126 -56.5625 51.0625 C-60.79645188 49.43405697 -63.14955509 47.87896301 -65.5625 44.0625 C-68.74964862 31.31390553 -58.71375017 15.69069556 -52.5625 5.0625 C-50.1875 4.9375 -50.1875 4.9375 -47.5625 5.0625 C-46.9025 5.7225 -46.2425 6.3825 -45.5625 7.0625 C-45.82025055 12.4430427 -48.16320255 16.62243975 -50.5625 21.3125 C-53.64380891 27.55659473 -55.81095706 32.96594511 -55.5625 40.0625 C-55.5625 40.7225 -55.5625 41.3825 -55.5625 42.0625 C-47.7351185 40.34047607 -43.62737877 36.94397726 -39.25 30.3125 C-35.74958154 24.6008797 -32.64021545 18.68317238 -29.58276367 12.72558594 C-29.21900635 12.02079102 -28.85524902 11.31599609 -28.48046875 10.58984375 C-28.15844482 9.95812256 -27.8364209 9.32640137 -27.50463867 8.67553711 C-26.5625 7.0625 -26.5625 7.0625 -24.5625 5.0625 C-21.4375 5.4375 -21.4375 5.4375 -18.5625 6.0625 C-17.80523292 8.30065178 -17.41586442 9.60758331 -18.15161133 11.89013672 C-18.4792749 12.50131348 -18.80693848 13.11249023 -19.14453125 13.7421875 C-19.49966797 14.42410156 -19.85480469 15.10601562 -20.22070312 15.80859375 C-20.60162109 16.51113281 -20.98253906 17.21367187 -21.375 17.9375 C-26.27644095 26.92643782 -26.27644095 26.92643782 -27.6875 36.9375 C-27.66945313 37.71867187 -27.65140625 38.49984375 -27.6328125 39.3046875 C-27.60960937 39.88476562 -27.58640625 40.46484375 -27.5625 41.0625 C-22.09432463 40.92579562 -19.3950353 38.61634165 -15.4921875 35.14453125 C-10.69367941 29.96719358 -8.61112583 24.875213 -6.875 18.1875 C-6.55692383 17.04087891 -6.55692383 17.04087891 -6.23242188 15.87109375 C-5.21894252 12.10491494 -4.4255656 8.43178355 -3.98046875 4.5546875 C-3.44539052 0.08403392 -3.44539052 0.08403392 0 0 Z " fill="#FDFDFD" transform="translate(393.5625,332.9375)"/>
<path d="M0 0 C2.4375 0.75 2.4375 0.75 5 2 C5.8359375 3.66015625 5.8359375 3.66015625 6 6 C4.85546875 9.13671875 4.85546875 9.13671875 3.1875 12.6875 C-0.87025526 21.69942356 -2.55749527 28.18777977 -1 38 C3.23668936 38.42366894 5.41679215 38.36896823 9.0625 36.0625 C12.24555344 33.13341359 14.30229971 29.53823269 16.41015625 25.79296875 C18 24 18 24 20.55859375 23.61328125 C23 24 23 24 25 26 C25.15476384 32.34531739 21.03531551 36.54803623 17 41 C9.15412423 48.70244111 9.15412423 48.70244111 2.6875 49.3125 C-1.73267921 48.93790854 -3.62729281 47.83614013 -7 45 C-8.75 42.375 -8.75 42.375 -10 40 C-10.66 39.34 -11.32 38.68 -12 38 C-12.54527344 38.56589844 -13.09054687 39.13179688 -13.65234375 39.71484375 C-18.16915726 44.10812048 -21.52961105 47.09957523 -28 47.234375 C-32.54430513 46.70183924 -34.89650817 44.24495644 -37.75 40.9375 C-41.55363855 35.97163856 -41.73177126 32.14687858 -41 26 C-38.29534255 17.21316164 -32.43831754 11.48130996 -24.83984375 6.6171875 C-18.77551096 3.46945759 -12.71746138 3.38473702 -6 4 C-5.01 4.33 -4.02 4.66 -3 5 C-2.690625 4.360625 -2.38125 3.72125 -2.0625 3.0625 C-1 1 -1 1 0 0 Z M-27.875 19.9375 C-30.9607665 24.38463407 -32.11238152 27.31427725 -31.75 32.75 C-31.28708276 36.06624987 -31.28708276 36.06624987 -29 38 C-25.68896649 38.15766826 -23.67081348 37.51446851 -21.0390625 35.49609375 C-14.49799744 29.29335964 -9.3139482 21.79300318 -7 13 C-8.53051646 11.46948354 -9.9324935 11.71999171 -12.0625 11.625 C-18.7933951 11.71060757 -23.46440575 15.0497362 -27.875 19.9375 Z " fill="#FDFDFD" transform="translate(466,335)"/>
<path d="M0 0 C2.625 0.9375 2.625 0.9375 5 2 C4.45144652 6.571279 3.58255197 10.67435795 2 15 C3.2375 14.9175 4.475 14.835 5.75 14.75 C9.10506698 14.7262052 9.75447904 14.80358323 12.5 17 C12.995 17.66 13.49 18.32 14 19 C13.34 20.32 12.68 21.64 12 23 C11.41734375 22.97679687 10.8346875 22.95359375 10.234375 22.9296875 C1.29505911 22.73291011 -7.61621791 23.7396403 -16 27 C-16 28.65 -16 30.3 -16 32 C-11.05 33.65 -6.1 35.3 -1 37 C0 42 0 42 -0.94921875 43.62890625 C-4.00259758 45.6703081 -7.36166923 46.75802294 -10.8125 47.9375 C-17.01492923 50.05833064 -22.91430127 52.08002178 -26.875 57.625 C-28.14269545 59.8632502 -28.14269545 59.8632502 -28 62 C-27.28344238 61.98952637 -26.56688477 61.97905273 -25.82861328 61.96826172 C-22.59411095 61.92678701 -19.35966447 61.90070108 -16.125 61.875 C-14.99707031 61.85824219 -13.86914062 61.84148437 -12.70703125 61.82421875 C-11.63066406 61.81777344 -10.55429688 61.81132812 -9.4453125 61.8046875 C-8.45031738 61.79421387 -7.45532227 61.78374023 -6.43017578 61.77294922 C-4 62 -4 62 -2 64 C-1.6875 66.5 -1.6875 66.5 -2 69 C-5.40431947 71.26954631 -7.16524202 71.36549949 -11.1875 71.625 C-12.27417969 71.69976562 -13.36085937 71.77453125 -14.48046875 71.8515625 C-15.31191406 71.90054688 -16.14335937 71.94953125 -17 72 C-17.16435547 72.87011719 -17.16435547 72.87011719 -17.33203125 73.7578125 C-18.30031144 78.5283637 -19.23621444 82.90550287 -22 87 C-24.5625 88 -24.5625 88 -27 88 C-27.66 87.34 -28.32 86.68 -29 86 C-28.64638402 81.4029922 -27.58012426 77.31900631 -26 73 C-26.69867188 72.67386719 -27.39734375 72.34773438 -28.1171875 72.01171875 C-29.02726563 71.57472656 -29.93734375 71.13773437 -30.875 70.6875 C-31.77992188 70.25824219 -32.68484375 69.82898438 -33.6171875 69.38671875 C-36 68 -36 68 -38 65 C-38.58929095 60.91322896 -38.45797444 57.15840593 -36.9375 53.3125 C-31.85130457 47.24187965 -26.36100526 43.83757573 -19 41 C-19.78375 40.236875 -20.5675 39.47375 -21.375 38.6875 C-24.08951645 35.9083522 -25.79891167 34.10598584 -26.5 30.25 C-25.77586841 25.54314466 -23.60121256 23.02912584 -20 20 C-15.60217085 17.40991409 -12.1369739 16 -7 16 C-6.83564453 15.12988281 -6.83564453 15.12988281 -6.66796875 14.2421875 C-5.69027327 9.42524878 -4.56007545 5.26679241 -2 1 C-1.34 0.67 -0.68 0.34 0 0 Z " fill="#FDFDFD" transform="translate(230,305)"/>
<path d="M0 0 C1.99954746 -0.04254356 4.00041636 -0.04080783 6 0 C6.495 0.495 6.495 0.495 7 1 C6.65584237 10.48384279 3.89941147 19.32294216 1.30859375 28.3828125 C0.83846528 30.04983225 0.36908139 31.71706214 -0.09959412 33.38449097 C-1.32681651 37.74304606 -2.56404267 42.09869781 -3.8034668 46.45379639 C-5.06976509 50.91017664 -6.32645333 55.36926446 -7.58398438 59.828125 C-10.04666067 68.55474003 -12.51992768 77.2783142 -15 86 C-13.42000241 85.53757292 -11.84091471 85.0720364 -10.26220703 84.60522461 C-9.38275421 84.34631943 -8.50330139 84.08741425 -7.59719849 83.82066345 C-3.90217105 82.65310772 -0.40231477 81.15696741 3.125 79.5625 C4.15911011 79.10508423 4.15911011 79.10508423 5.21411133 78.63842773 C8.76893552 77.05387884 12.24923952 75.38927976 15.6875 73.5625 C18.83715915 72.07681172 20.59147167 71.29824417 24 72 C26 75 26 75 25.85791016 77.03955078 C24.75170013 79.56740124 23.70718775 80.1077288 21.2734375 81.3671875 C20.49637451 81.77509521 19.71931152 82.18300293 18.91870117 82.60327148 C18.07927979 83.02294189 17.2398584 83.4426123 16.375 83.875 C15.51559814 84.31336182 14.65619629 84.75172363 13.77075195 85.20336914 C2.24625591 90.99606003 -9.9797347 96.84903732 -23 98 C-23.99 97.34 -24.98 96.68 -26 96 C-25.49278421 86.69778885 -23.01853919 78.14996151 -20.44921875 69.2578125 C-19.98873765 67.64194427 -19.5289367 66.02588207 -19.06977844 64.40963745 C-18.10906592 61.03444519 -17.14285212 57.66089794 -16.17211914 54.28857422 C-14.93735488 49.99877336 -13.7122962 45.70628266 -12.49089336 41.4126606 C-11.3138264 37.27671239 -10.13161931 33.1422384 -8.94921875 29.0078125 C-8.72886145 28.23554447 -8.50850414 27.46327644 -8.28146935 26.66760635 C-5.72037003 17.70553025 -3.0474414 8.81218085 0 0 Z " fill="#FDFDFD" transform="translate(301,304)"/>
<path d="M0 0 C1.32 0 2.64 0 4 0 C4.33 0.66 4.66 1.32 5 2 C5.99 1.34 6.98 0.68 8 0 C11.09495395 -0.3993489 13.03945865 -0.6393387 16 0 C19.24712599 2.63828986 20.63419615 4.15479476 21.44140625 8.2265625 C21.64126299 12.08186351 21.23943494 14.52113012 19.5 18 C15.93189566 20.85448347 13.55259001 20.85547333 9 21 C8.01 20.67 7.02 20.34 6 20 C5.67 22.31 5.34 24.62 5 27 C3.35 27 1.7 27 0 27 C0 18.09 0 9.18 0 0 Z M6.125 5.0625 C4.33764697 8.14071911 4.56613258 10.52906068 5 14 C6.5 16.16666667 6.5 16.16666667 9 17 C12.12680099 17.00674926 12.12680099 17.00674926 15 16 C17.31282587 12.53076119 17.42478586 11.07794425 17 7 C16 5 16 5 14 4 C10.88188517 3.61023565 8.88980433 3.49577755 6.125 5.0625 Z " fill="#FDFDFD" transform="translate(229,429)"/>
<path d="M0 0 C18.81 0 37.62 0 57 0 C57 1.65 57 3.3 57 5 C38.19 5 19.38 5 0 5 C0 3.35 0 1.7 0 0 Z " fill="#FDFDFD" transform="translate(73,437)"/>
<path d="M0 0 C18.48 0 36.96 0 56 0 C56.495 2.475 56.495 2.475 57 5 C38.19 5 19.38 5 0 5 C0 3.35 0 1.7 0 0 Z " fill="#FDFDFD" transform="translate(370,433)"/>
<path d="M0 0 C2.475 0.495 2.475 0.495 5 1 C5.66 0.67 6.32 0.34 7 0 C13.99015219 -0.68755595 13.99015219 -0.68755595 17.9375 2 C20.69292627 6.00789275 21 8.13135738 21 13 C19.44911782 16.67314201 17.51812815 19.090159 14 21 C9.89718519 21.41865457 8.48868651 21.32579101 5 19 C4.67 21.64 4.34 24.28 4 27 C2.68 27 1.36 27 0 27 C0 18.09 0 9.18 0 0 Z M5.0625 5.5625 C3.54173781 9.05130737 4.05864102 11.36904394 5 15 C8.23253796 17.15502531 9.25150923 17.46856135 13 17 C15.02730365 15.55192597 15.82637565 14.40067157 16.8125 12.125 C17.06421186 9.27226556 16.2960437 7.52387457 15 5 C11.48479555 3.24239777 8.17811083 3.04991062 5.0625 5.5625 Z " fill="#FCFCFC" transform="translate(205,429)"/>
<path d="M0 0 C3 2.0625 3 2.0625 5 5 C5.33 7.31 5.66 9.62 6 12 C0.72 12 -4.56 12 -10 12 C-7.56557152 16.22463984 -7.56557152 16.22463984 -4.4375 16.375 C-1.82471891 16.21896136 -1.82471891 16.21896136 0 14 C2.625 13.875 2.625 13.875 5 14 C3.19587357 17.26460973 2.16605307 18.88929795 -1 21 C-5.52086206 21.3247028 -9.02074902 20.83236333 -12.5 17.875 C-14.31462868 14.39696169 -14.93105717 11.92974122 -15 8 C-12.12517106 0.3817033 -7.69117511 -1.29535581 0 0 Z M-10 6 C-10 6.66 -10 7.32 -10 8 C-6.37 8 -2.74 8 1 8 C0.34 6.68 -0.32 5.36 -1 4 C-5.7897321 3.76571687 -5.7897321 3.76571687 -10 6 Z " fill="#FCFCFC" transform="translate(307,429)"/>
<path d="M0 0 C3.875 0.5 3.875 0.5 6.875 2.5 C7.205 1.84 7.535 1.18 7.875 0.5 C9.195 0.5 10.515 0.5 11.875 0.5 C11.875 7.1 11.875 13.7 11.875 20.5 C10.225 20.17 8.575 19.84 6.875 19.5 C5.53312182 20.1492959 4.20020503 20.81731862 2.875 21.5 C-1.04532447 22.00046695 -2.61202261 21.84198493 -5.9375 19.625 C-8.83247851 16.81273516 -9.32621054 15.18031551 -9.5 11.25 C-9.44579061 7.89443856 -9.08462915 5.69281749 -7.125 2.9375 C-4.13230094 0.50593201 -3.58749788 0.112523 0 0 Z M-4 5.625 C-5.67968045 8.42446741 -5.58242277 10.29804064 -5.125 13.5 C-3.64506844 16.06338689 -3.64506844 16.06338689 -1.125 17.5 C2.5735004 17.35205998 4.23305573 17.14194427 6.875 14.5 C7.3390446 9.83771115 7.3390446 9.83771115 5.75 5.5625 C2.44940611 3.69216346 -0.74023517 3.6691411 -4 5.625 Z " fill="#FDFDFD" transform="translate(262.125,428.5)"/>
<path d="M0 0 C0.99 0 1.98 0 3 0 C4.32 0 5.64 0 7 0 C7 6.6 7 13.2 7 20 C5.35 19.67 3.7 19.34 2 19 C1.01 19.66 0.02 20.32 -1 21 C-5.09980652 21.63774768 -6.72292747 21.16728907 -10.3125 19 C-13.16792446 16.33292807 -14.01871855 13.93178464 -14.24609375 10.06640625 C-13.80333765 6.34866056 -12.16307689 4.02830765 -10 1 C-6.83598119 -0.58200941 -3.46125163 -0.06168567 0 0 Z M-7.875 5.0625 C-9.64273274 8.1069286 -9.36823916 10.5631012 -9 14 C-8.10242444 16.14780077 -8.10242444 16.14780077 -6 17 C-2.42243314 17.00082535 -2.42243314 17.00082535 1 16 C3.31282587 12.53076119 3.42478586 11.07794425 3 7 C2 5 2 5 0 4 C-3.11811483 3.61023565 -5.11019567 3.49577755 -7.875 5.0625 Z " fill="#FCFDFC" transform="translate(192,429)"/>
<path d="M0 0 C1.32 0 2.64 0 4 0 C4.33 0.66 4.66 1.32 5 2 C5.66 1.34 6.32 0.68 7 0 C9.625 -0.125 9.625 -0.125 12 0 C12 1.32 12 2.64 12 4 C10.02 4.33 8.04 4.66 6 5 C5.34 9.95 4.68 14.9 4 20 C2.68 20 1.36 20 0 20 C0 13.4 0 6.8 0 0 Z " fill="#FDFDFD" transform="translate(279,429)"/>
<path d="M0 0 C1.32 0 2.64 0 4 0 C4 8.91 4 17.82 4 27 C2.68 27 1.36 27 0 27 C0 18.09 0 9.18 0 0 Z " fill="#FBFBFA" transform="translate(316,422)"/>
</svg>
